<?xml version="1.0" encoding="UTF-8" standalone="no"?>
<svg
   version="1.1"
   preserveAspectRatio="xMidYMid meet"
   viewBox="540 257 137 165"
   id="svg46"
   sodipodi:docname="logo.svg"
   inkscape:version="1.1 (c68e22c387, 2021-05-23)"
   xmlns:inkscape="http://www.inkscape.org/namespaces/inkscape"
   xmlns:sodipodi="http://sodipodi.sourceforge.net/DTD/sodipodi-0.dtd"
   xmlns="http://www.w3.org/2000/svg"
   xmlns:svg="http://www.w3.org/2000/svg">
  <defs
     id="defs50" />
  <sodipodi:namedview
     id="namedview48"
     pagecolor="#505050"
     bordercolor="#eeeeee"
     borderopacity="1"
     inkscape:pageshadow="0"
     inkscape:pageopacity="0"
     inkscape:pagecheckerboard="0"
     showgrid="false"
     inkscape:zoom="3.1636364"
     inkscape:cx="68.433908"
     inkscape:cy="56.738506"
     inkscape:window-width="1280"
     inkscape:window-height="753"
     inkscape:window-x="-4"
     inkscape:window-y="-4"
     inkscape:window-maximized="1"
     inkscape:current-layer="svg46" />
  <g
     data-item-type="image"
     data-item="Image"
     data-logo-item=""
     id="logo__item--logo_0"
     class="logo__item">
    <g
       class="logo__item__inner"
       transform="translate(534.3741034070177 250.5) scale(0.9323760822544183 0.9323760822544183) rotate(0 0 0)"
       id="g43">
      <g
         id="g41">
        <g
           id="g11">
          <circle
             fill="none"
             cx="75.8"
             cy="76.3"
             r="35.1"
             data-part-id="logo__item--logo_0__0"
             id="circle7" />
          <path
             fill="#169945"
             d="M135.1,64.8l-10.9-3.5c-0.9-2.8-2-5.6-3.4-8.2l5.7-10.5c2-2,2-5.2,0.1-7.2l-9.5-9.6c-2-2-5.2-2-7.2-0.1    L99,31.3c-2.4-1.2-4.8-2.3-7.4-3.1L88,16.2c0-2.8-2.3-5.2-5.1-5.2H69.4c-2.8,0-5.1,2.4-5.1,5.2l-3.6,11.8    c-1.6,0.5-3.2,1.1-4.7,1.7l-10.2-6.1c-1.9-2.1-5.1-2.3-7.1-0.4l-10.1,9c-2.1,1.9-2.3,5.1-0.4,7.1l4.7,10.2c-1.6,2.5-2.9,5.2-4.1,8    l-11.5,2.9c-2.8-0.1-5.2,2-5.3,4.8l-0.6,13.5c-0.1,2.8,2,5.2,4.8,5.3l10.2,3.7c0.7,3.3,1.8,6.4,3.2,9.4l-5.5,9.4    c-2.1,1.9-2.2,5.1-0.3,7.2l9.2,9.9c1.9,2.1,5.1,2.2,7.2,0.3l9.1-4.4c3.1,1.9,6.3,3.4,9.8,4.7l2.7,9.8c-0.1,2.8,2.1,5.1,4.9,5.2    l13.5,0.4c2.8,0.1,5.1-2.1,5.2-4.9l3.2-9.4c3.6-0.9,7-2.2,10.2-3.9l9,5c1.9,2,5.1,2.1,7.2,0.2l9.8-9.3c2-1.9,2.1-5.1,0.2-7.2    l-4.7-9.4c1.6-2.9,2.9-6,4-9.3l10.5-3.1c2.8,0,5.1-2.2,5.1-5l0.2-13.5C140.1,67.1,137.9,64.8,135.1,64.8z M75.8,111.4    c-19.4,0-35.1-15.7-35.1-35.1c0-19.4,15.7-35.1,35.1-35.1c19.4,0,35.1,15.7,35.1,35.1C110.9,95.7,95.2,111.4,75.8,111.4z"
             data-part-id="logo__item--logo_0__1"
             id="path9" />
        </g>
        <polygon
           fill="#169945"
           points="76.1,59.7 77.2,101.3 78.5,101"
           data-part-id="logo__item--logo_0__2"
           id="polygon13" />
        <g
           id="g17">
          <path
             fill="#E58A24"
             d="M106.4,72.2c0,0.5,0.1,0.9,0.1,1.4c0,16.7-13.6,30.3-30.3,30.3c-16.7,0-30.3-13.6-30.3-30.3    c0-0.5,0-0.9,0.1-1.4c-0.4,1.9-0.6,3.8-0.6,5.8c0,17,13.8,30.8,30.8,30.8c17,0,30.8-13.8,30.8-30.8C107,76,106.8,74,106.4,72.2z"
             data-part-id="logo__item--logo_0__3"
             id="path15" />
        </g>
        <path
           fill="#169945"
           d="M75.1,68.1c0.1,0.3,3-10.8-8.7-12.8c0,0,0.4,0.9,0.4,1.9c0,0.9-1.4,10.8,7.6,11c0,0-0.9-6.9-6.5-10.7   C67.9,57.5,72.9,59.5,75.1,68.1z"
           data-part-id="logo__item--logo_0__4"
           id="path19" />
        <path
           fill="#169945"
           d="M74.7,77.4c0.1,0.2,0.6-11.2-11.3-10.5c0,0,0.6,0.8,0.8,1.7c0.2,0.9,1,10.9,9.9,9.1c0,0-2.4-6.5-8.7-9   C65.3,68.7,70.7,69.6,74.7,77.4z"
           data-part-id="logo__item--logo_0__5"
           id="path21" />
        <path
           fill="#169945"
           d="M76.8,86.5c0.2,0.2-3.5-12-15.8-7c0,0,1,0.6,1.5,1.5c0.5,0.9,5,11.1,13.8,6c0,0-4.9-6-12.5-6.3   C63.8,80.7,69.7,79.6,76.8,86.5z"
           data-part-id="logo__item--logo_0__6"
           id="path23" />
        <path
           fill="#169945"
           d="M77.8,93.5c0.3,0.1-7.3-10.2-17.3-1.4c0,0,1.1,0.3,1.9,1c0.8,0.7,8.4,8.9,15,1.1c0,0-6.6-4-13.8-1.8   C63.6,92.3,68.8,89.4,77.8,93.5z"
           data-part-id="logo__item--logo_0__7"
           id="path25" />
        <path
           fill="#169945"
           d="M78.5,68.2c0,0.3-3.8-10.5,7.7-13.4c0,0-0.4,1-0.3,1.9c0.1,0.9,2.3,10.7-6.7,11.6c0,0,0.3-6.9,5.6-11.1   C84.9,57.2,80,59.5,78.5,68.2z"
           data-part-id="logo__item--logo_0__8"
           id="path27" />
        <path
           fill="#169945"
           d="M79.6,77.5c-0.1,0.3-1.4-11.1,10.5-11.4c0,0-0.6,0.9-0.7,1.8c-0.1,0.9-0.2,10.9-9.2,9.8c0,0,1.9-6.7,8-9.6   C88.3,68.1,83.1,69.3,79.6,77.5z"
           data-part-id="logo__item--logo_0__9"
           id="path29" />
        <path
           fill="#169945"
           d="M78.2,86.7c-0.2,0.2,2.6-12.2,15.3-8.2c0,0-0.9,0.7-1.4,1.6c-0.5,0.9-4.2,11.5-13.3,7c0,0,4.4-6.4,11.9-7.2   C90.7,79.9,84.8,79.3,78.2,86.7z"
           data-part-id="logo__item--logo_0__10"
           id="path31" />
        <path
           fill="#169945"
           d="M77.7,93.8c-0.3,0.2,6.5-10.7,17.1-2.7c0,0-1.1,0.4-1.9,1.1c-0.7,0.7-7.7,9.5-14.8,2.2   c0,0,6.3-4.5,13.7-2.9C91.8,91.5,86.4,89,77.7,93.8z"
           data-part-id="logo__item--logo_0__11"
           id="path33" />
        <path
           fill="#169945"
           d="M76.1,59.7c-0.1,0.3,8-7.8-1.1-15.4c0,0-0.1,1-0.6,1.8c-0.5,0.8-6.7,8.7,1.1,13.4c0,0,2.7-6.4-0.3-12.5   C75.2,47,78.6,51.2,76.1,59.7z"
           data-part-id="logo__item--logo_0__12"
           id="path35" />
        <g
           id="g39">
          <path
             fill="#FFFFFE"
             d="M31.6,77.2C31.6,52,52,31.6,77.2,31.6c25,0,45.3,20.1,45.5,45.1c0-0.2,0-0.3,0-0.5    c0-25.7-20.9-46.6-46.6-46.6c-25.7,0-46.6,20.9-46.6,46.6c0,25.7,20.9,46.6,46.6,46.6c0.2,0,0.3,0,0.5,0    C51.7,122.4,31.6,102.2,31.6,77.2z"
             data-part-id="logo__item--logo_0__13"
             id="path37" />
        </g>
      </g>
    </g>
  </g>
</svg>
