<?xml version="1.0" encoding="UTF-8" standalone="no"?>
<svg
   version="1.1"
   preserveAspectRatio="xMidYMid meet"
   viewBox="540 257 120 119.90662"
   id="svg46"
   sodipodi:docname="logo_only.svg"
   inkscape:version="1.1 (c68e22c387, 2021-05-23)"
   width="120"
   height="119.90662"
   xmlns:inkscape="http://www.inkscape.org/namespaces/inkscape"
   xmlns:sodipodi="http://sodipodi.sourceforge.net/DTD/sodipodi-0.dtd"
   xmlns="http://www.w3.org/2000/svg"
   xmlns:svg="http://www.w3.org/2000/svg">
  <defs
     id="defs50" />
  <sodipodi:namedview
     id="namedview48"
     pagecolor="#505050"
     bordercolor="#eeeeee"
     borderopacity="1"
     inkscape:pageshadow="0"
     inkscape:pageopacity="0"
     inkscape:pagecheckerboard="0"
     showgrid="false"
     inkscape:zoom="3.1636364"
     inkscape:cx="63.376436"
     inkscape:cy="52.945402"
     inkscape:window-width="1280"
     inkscape:window-height="753"
     inkscape:window-x="-4"
     inkscape:window-y="-4"
     inkscape:window-maximized="1"
     inkscape:current-layer="svg46"
     fit-margin-top="0"
     fit-margin-left="0"
     fit-margin-right="0"
     fit-margin-bottom="0" />
  <g
     data-item-type="image"
     data-item="Image"
     data-logo-item=""
     id="logo__item--logo_0"
     class="logo__item"
     transform="translate(-4.9999956,-3.7561369)">
    <g
       class="logo__item__inner"
       transform="matrix(0.93237608,0,0,0.93237608,534.3741,250.5)"
       id="g43">
      <g
         id="g41">
        <g
           id="g11">
          <circle
             fill="none"
             cx="75.800003"
             cy="76.300003"
             r="35.099998"
             data-part-id="logo__item--logo_0__0"
             id="circle7" />
          <path
             fill="#169945"
             d="m 135.1,64.8 -10.9,-3.5 c -0.9,-2.8 -2,-5.6 -3.4,-8.2 l 5.7,-10.5 c 2,-2 2,-5.2 0.1,-7.2 l -9.5,-9.6 c -2,-2 -5.2,-2 -7.2,-0.1 L 99,31.3 C 96.6,30.1 94.2,29 91.6,28.2 L 88,16.2 C 88,13.4 85.7,11 82.9,11 H 69.4 c -2.8,0 -5.1,2.4 -5.1,5.2 L 60.7,28 c -1.6,0.5 -3.2,1.1 -4.7,1.7 L 45.8,23.6 c -1.9,-2.1 -5.1,-2.3 -7.1,-0.4 l -10.1,9 c -2.1,1.9 -2.3,5.1 -0.4,7.1 l 4.7,10.2 c -1.6,2.5 -2.9,5.2 -4.1,8 l -11.5,2.9 c -2.8,-0.1 -5.2,2 -5.3,4.8 l -0.6,13.5 c -0.1,2.8 2,5.2 4.8,5.3 l 10.2,3.7 c 0.7,3.3 1.8,6.4 3.2,9.4 l -5.5,9.4 c -2.1,1.9 -2.2,5.1 -0.3,7.2 l 9.2,9.9 c 1.9,2.1 5.1,2.2 7.2,0.3 l 9.1,-4.4 c 3.1,1.9 6.3,3.4 9.8,4.7 l 2.7,9.8 c -0.1,2.8 2.1,5.1 4.9,5.2 l 13.5,0.4 c 2.8,0.1 5.1,-2.1 5.2,-4.9 l 3.2,-9.4 c 3.6,-0.9 7,-2.2 10.2,-3.9 l 9,5 c 1.9,2 5.1,2.1 7.2,0.2 l 9.8,-9.3 c 2,-1.9 2.1,-5.1 0.2,-7.2 l -4.7,-9.4 c 1.6,-2.9 2.9,-6 4,-9.3 l 10.5,-3.1 c 2.8,0 5.1,-2.2 5.1,-5 l 0.2,-13.5 c 0,-2.7 -2.2,-5 -5,-5 z m -59.3,46.6 c -19.4,0 -35.1,-15.7 -35.1,-35.1 0,-19.4 15.7,-35.1 35.1,-35.1 19.4,0 35.1,15.7 35.1,35.1 0,19.4 -15.7,35.1 -35.1,35.1 z"
             data-part-id="logo__item--logo_0__1"
             id="path9" />
        </g>
        <polygon
           fill="#169945"
           points="78.5,101 76.1,59.7 77.2,101.3 "
           data-part-id="logo__item--logo_0__2"
           id="polygon13" />
        <g
           id="g17">
          <path
             fill="#e58a24"
             d="m 106.4,72.2 c 0,0.5 0.1,0.9 0.1,1.4 0,16.7 -13.6,30.3 -30.3,30.3 -16.7,0 -30.3,-13.6 -30.3,-30.3 0,-0.5 0,-0.9 0.1,-1.4 -0.4,1.9 -0.6,3.8 -0.6,5.8 0,17 13.8,30.8 30.8,30.8 17,0 30.8,-13.8 30.8,-30.8 0,-2 -0.2,-4 -0.6,-5.8 z"
             data-part-id="logo__item--logo_0__3"
             id="path15" />
        </g>
        <path
           fill="#169945"
           d="m 75.1,68.1 c 0.1,0.3 3,-10.8 -8.7,-12.8 0,0 0.4,0.9 0.4,1.9 0,0.9 -1.4,10.8 7.6,11 0,0 -0.9,-6.9 -6.5,-10.7 0,0 5,2 7.2,10.6 z"
           data-part-id="logo__item--logo_0__4"
           id="path19" />
        <path
           fill="#169945"
           d="m 74.7,77.4 c 0.1,0.2 0.6,-11.2 -11.3,-10.5 0,0 0.6,0.8 0.8,1.7 0.2,0.9 1,10.9 9.9,9.1 0,0 -2.4,-6.5 -8.7,-9 -0.1,0 5.3,0.9 9.3,8.7 z"
           data-part-id="logo__item--logo_0__5"
           id="path21" />
        <path
           fill="#169945"
           d="m 76.8,86.5 c 0.2,0.2 -3.5,-12 -15.8,-7 0,0 1,0.6 1.5,1.5 0.5,0.9 5,11.1 13.8,6 0,0 -4.9,-6 -12.5,-6.3 0,0 5.9,-1.1 13,5.8 z"
           data-part-id="logo__item--logo_0__6"
           id="path23" />
        <path
           fill="#169945"
           d="m 77.8,93.5 c 0.3,0.1 -7.3,-10.2 -17.3,-1.4 0,0 1.1,0.3 1.9,1 0.8,0.7 8.4,8.9 15,1.1 0,0 -6.6,-4 -13.8,-1.8 0,-0.1 5.2,-3 14.2,1.1 z"
           data-part-id="logo__item--logo_0__7"
           id="path25" />
        <path
           fill="#169945"
           d="m 78.5,68.2 c 0,0.3 -3.8,-10.5 7.7,-13.4 0,0 -0.4,1 -0.3,1.9 0.1,0.9 2.3,10.7 -6.7,11.6 0,0 0.3,-6.9 5.6,-11.1 0.1,0 -4.8,2.3 -6.3,11 z"
           data-part-id="logo__item--logo_0__8"
           id="path27" />
        <path
           fill="#169945"
           d="m 79.6,77.5 c -0.1,0.3 -1.4,-11.1 10.5,-11.4 0,0 -0.6,0.9 -0.7,1.8 -0.1,0.9 -0.2,10.9 -9.2,9.8 0,0 1.9,-6.7 8,-9.6 0.1,0 -5.1,1.2 -8.6,9.4 z"
           data-part-id="logo__item--logo_0__9"
           id="path29" />
        <path
           fill="#169945"
           d="m 78.2,86.7 c -0.2,0.2 2.6,-12.2 15.3,-8.2 0,0 -0.9,0.7 -1.4,1.6 -0.5,0.9 -4.2,11.5 -13.3,7 0,0 4.4,-6.4 11.9,-7.2 0,0 -5.9,-0.6 -12.5,6.8 z"
           data-part-id="logo__item--logo_0__10"
           id="path31" />
        <path
           fill="#169945"
           d="m 77.7,93.8 c -0.3,0.2 6.5,-10.7 17.1,-2.7 0,0 -1.1,0.4 -1.9,1.1 -0.7,0.7 -7.7,9.5 -14.8,2.2 0,0 6.3,-4.5 13.7,-2.9 0,0 -5.4,-2.5 -14.1,2.3 z"
           data-part-id="logo__item--logo_0__11"
           id="path33" />
        <path
           fill="#169945"
           d="M 76.1,59.7 C 76,60 84.1,51.9 75,44.3 c 0,0 -0.1,1 -0.6,1.8 -0.5,0.8 -6.7,8.7 1.1,13.4 0,0 2.7,-6.4 -0.3,-12.5 0,0 3.4,4.2 0.9,12.7 z"
           data-part-id="logo__item--logo_0__12"
           id="path35" />
        <g
           id="g39">
          <path
             fill="#fffffe"
             d="M 31.6,77.2 C 31.6,52 52,31.6 77.2,31.6 c 25,0 45.3,20.1 45.5,45.1 0,-0.2 0,-0.3 0,-0.5 0,-25.7 -20.9,-46.6 -46.6,-46.6 -25.7,0 -46.6,20.9 -46.6,46.6 0,25.7 20.9,46.6 46.6,46.6 0.2,0 0.3,0 0.5,0 -24.9,-0.4 -45,-20.6 -45,-45.6 z"
             data-part-id="logo__item--logo_0__13"
             id="path37" />
        </g>
      </g>
    </g>
  </g>
</svg>
